HIERARCHY
ROOT hip
{
  OFFSET 5.51535 103.731 -2.80141
  CHANNELS 6 Xposition Yposition Zposition Zrotation Xrotation Yrotation
  JOINT abdomen
  {
    OFFSET 0 -1.186 -1.5018
    CHANNELS 6 Xposition Yposition Zposition Zrotation Xrotation Yrotation
    JOINT abdomen2
    {
      OFFSET 0 9.964 0.2134
      CHANNELS 6 Xposition Yposition Zposition Zrotation Xrotation Yrotation
      JOINT chest
      {
        OFFSET 0 13.134 -3.2573
        CHANNELS 6 Xposition Yposition Zposition Zrotation Xrotation Yrotation
        JOINT neck
        {
          OFFSET 0 20.686 -1.6905
          CHANNELS 6 Xposition Yposition Zposition Zrotation Xrotation Yrotation
          JOINT head
          {
            OFFSET 0 7.23801 -0.1237
            CHANNELS 6 Xposition Yposition Zposition Zrotation Xrotation Yrotation
            End Site
            {
              OFFSET 0 0 0
            }
          }
        }
        JOINT lCollar
        {
          OFFSET 1.7069 20.075 5.0056
          CHANNELS 6 Xposition Yposition Zposition Zrotation Xrotation Yrotation
          JOINT lShldr
          {
            OFFSET 13.6458 -0.0470195 -4.849
            CHANNELS 6 Xposition Yposition Zposition Zrotation Xrotation Yrotation
            JOINT lForeArm
            {
              OFFSET 28.3255 -0.97589 2.2888
              CHANNELS 6 Xposition Yposition Zposition Zrotation Xrotation Yrotation
              JOINT lHand
              {
                OFFSET 22.1583 -0.529998 10.8316
                CHANNELS 6 Xposition Yposition Zposition Zrotation Xrotation Yrotation
                JOINT lThumb1
                {
                  OFFSET 0.786 0.111997 2.5817
                  CHANNELS 6 Xposition Yposition Zposition Zrotation Xrotation Yrotation
                  JOINT lThumb2
                  {
                    OFFSET 0.360097 -0.877999 4.2331
                    CHANNELS 6 Xposition Yposition Zposition Zrotation Xrotation Yrotation
                    JOINT lThumb2_End
                    {
                      OFFSET 1.8127 -1.21601 2.2227
                      CHANNELS 6 Xposition Yposition Zposition Zrotation Xrotation Yrotation
                      End Site
                      {
                        OFFSET 0.0180981 -0.012195 0.0222007
                      }
                    }
                  }
                }
                JOINT lCarpal1
                {
                  OFFSET 0.9571 1.114 1.7695
                  CHANNELS 6 Xposition Yposition Zposition Zrotation Xrotation Yrotation
                  JOINT lIndex1
                  {
                    OFFSET 4.12461 0.486992 4.1451
                    CHANNELS 6 Xposition Yposition Zposition Zrotation Xrotation Yrotation
                    JOINT lIndex2
                    {
                      OFFSET 3.4052 -1.45401 2.7682
                      CHANNELS 6 Xposition Yposition Zposition Zrotation Xrotation Yrotation
                      JOINT lIndex2_End
                      {
                        OFFSET 1.45309 -1.79499 1.2713
                        CHANNELS 6 Xposition Yposition Zposition Zrotation Xrotation Yrotation
                        End Site
                        {
                          OFFSET 0.0144979 -0.0179083 0.0126995
                        }
                      }
                    }
                  }
                  JOINT lMid1
                  {
                    OFFSET 5.6954 0.209987 2.1184
                    CHANNELS 6 Xposition Yposition Zposition Zrotation Xrotation Yrotation
                    JOINT lMid2
                    {
                      OFFSET 3.9766 -1.53999 2.3863
                      CHANNELS 6 Xposition Yposition Zposition Zrotation Xrotation Yrotation
                      JOINT lMid2_End
                      {
                        OFFSET 1.4042 -1.926 1.125
                        CHANNELS 6 Xposition Yposition Zposition Zrotation Xrotation Yrotation
                        End Site
                        {
                          OFFSET 0.013999 -0.0193044 0.011301
                        }
                      }
                    }
                  }
                }
                JOINT lCarpal2
                {
                  OFFSET 2.0956 0.66 -0.3894
                  CHANNELS 6 Xposition Yposition Zposition Zrotation Xrotation Yrotation
                  JOINT lRing1
                  {
                    OFFSET 5.0395 -0.090013 2.4971
                    CHANNELS 6 Xposition Yposition Zposition Zrotation Xrotation Yrotation
                    JOINT lRing2
                    {
                      OFFSET 3.7921 -1.55199 1.4806
                      CHANNELS 6 Xposition Yposition Zposition Zrotation Xrotation Yrotation
                      JOINT lRing2_End
                      {
                        OFFSET 1.4655 -1.808 0.9609
                        CHANNELS 6 Xposition Yposition Zposition Zrotation Xrotation Yrotation
                        End Site
                        {
                          OFFSET 0.0147015 -0.0181014 0.00959957
                        }
                      }
                    }
                  }
                  JOINT lPinky1
                  {
                    OFFSET 4.9141 -1.269 0.3591
                    CHANNELS 6 Xposition Yposition Zposition Zrotation Xrotation Yrotation
                    JOINT lPinky2
                    {
                      OFFSET 3.1477 -1.685 0.8462
                      CHANNELS 6 Xposition Yposition Zposition Zrotation Xrotation Yrotation
                      JOINT lPinky2_End
                      {
                        OFFSET 0.805498 -1.58501 0.795499
                        CHANNELS 6 Xposition Yposition Zposition Zrotation Xrotation Yrotation
                        End Site
                        {
                          OFFSET 0.00809703 -0.0157944 0.00799848
                        }
                      }
                    }
                  }
                }
              }
            }
          }
        }
        JOINT rCollar
        {
          OFFSET -1.7069 20.075 5.0056
          CHANNELS 6 Xposition Yposition Zposition Zrotation Xrotation Yrotation
          JOINT rShldr
          {
            OFFSET -13.6458 -0.0470107 -4.849
            CHANNELS 6 Xposition Yposition Zposition Zrotation Xrotation Yrotation
            JOINT rForeArm
            {
              OFFSET -28.3255 -0.975895 2.2888
              CHANNELS 6 Xposition Yposition Zposition Zrotation Xrotation Yrotation
              JOINT rHand
              {
                OFFSET -22.1583 -0.530007 10.8316
                CHANNELS 6 Xposition Yposition Zposition Zrotation Xrotation Yrotation
                JOINT rThumb1
                {
                  OFFSET -0.785997 0.112005 2.5817
                  CHANNELS 6 Xposition Yposition Zposition Zrotation Xrotation Yrotation
                  JOINT rThumb2
                  {
                    OFFSET -0.360106 -0.877994 4.2331
                    CHANNELS 6 Xposition Yposition Zposition Zrotation Xrotation Yrotation
                    JOINT rThumb2_End
                    {
                      OFFSET -1.8127 -1.216 2.2227
                      CHANNELS 6 Xposition Yposition Zposition Zrotation Xrotation Yrotation
                      End Site
                      {
                        OFFSET -0.0180972 -0.0121973 0.0222005
                      }
                    }
                  }
                }
                JOINT rCarpal1
                {
                  OFFSET -0.9571 1.114 1.7695
                  CHANNELS 6 Xposition Yposition Zposition Zrotation Xrotation Yrotation
                  JOINT rIndex1
                  {
                    OFFSET -4.1246 0.487011 4.1451
                    CHANNELS 6 Xposition Yposition Zposition Zrotation Xrotation Yrotation
                    JOINT rIndex2
                    {
                      OFFSET -3.4052 -1.45401 2.7682
                      CHANNELS 6 Xposition Yposition Zposition Zrotation Xrotation Yrotation
                      JOINT rIndex2_End
                      {
                        OFFSET -1.4531 -1.795 1.2713
                        CHANNELS 6 Xposition Yposition Zposition Zrotation Xrotation Yrotation
                        End Site
                        {
                          OFFSET -0.0145077 -0.0180048 0.0127017
                        }
                      }
                    }
                  }
                  JOINT rMid1
                  {
                    OFFSET -5.6954 0.210002 2.1184
                    CHANNELS 6 Xposition Yposition Zposition Zrotation Xrotation Yrotation
                    JOINT rMid2
                    {
                      OFFSET -3.9766 -1.54 2.3863
                      CHANNELS 6 Xposition Yposition Zposition Zrotation Xrotation Yrotation
                      JOINT rMid2_End
                      {
                        OFFSET -1.4042 -1.926 1.125
                        CHANNELS 6 Xposition Yposition Zposition Zrotation Xrotation Yrotation
                        End Site
                        {
                          OFFSET -0.0139948 -0.0192916 0.0112994
                        }
                      }
                    }
                  }
                }
                JOINT rCarpal2
                {
                  OFFSET -2.0956 0.66 -0.3894
                  CHANNELS 6 Xposition Yposition Zposition Zrotation Xrotation Yrotation
                  JOINT rRing1
                  {
                    OFFSET -5.03951 -0.0899879 2.4971
                    CHANNELS 6 Xposition Yposition Zposition Zrotation Xrotation Yrotation
                    JOINT rRing2
                    {
                      OFFSET -3.7921 -1.55201 1.4806
                      CHANNELS 6 Xposition Yposition Zposition Zrotation Xrotation Yrotation
                      JOINT rRing2_End
                      {
                        OFFSET -1.4655 -1.808 0.960901
                        CHANNELS 6 Xposition Yposition Zposition Zrotation Xrotation Yrotation
                        End Site
                        {
                          OFFSET -0.0146934 -0.0180999 0.00959832
                        }
                      }
                    }
                  }
                  JOINT rPinky1
                  {
                    OFFSET -4.91411 -1.26899 0.359202
                    CHANNELS 6 Xposition Yposition Zposition Zrotation Xrotation Yrotation
                    JOINT rPinky2
                    {
                      OFFSET -3.14769 -1.68501 0.846199
                      CHANNELS 6 Xposition Yposition Zposition Zrotation Xrotation Yrotation
                      JOINT rPinky2_End
                      {
                        OFFSET -0.805498 -1.585 0.7955
                        CHANNELS 6 Xposition Yposition Zposition Zrotation Xrotation Yrotation
                        End Site
                        {
                          OFFSET -0.00810035 -0.0158035 0.00800029
                        }
                      }
                    }
                  }
                }
              }
            }
          }
        }
      }
    }
  }
  JOINT lThigh
  {
    OFFSET 8.367 -8.2066 0.5982
    CHANNELS 6 Xposition Yposition Zposition Zrotation Xrotation Yrotation
    JOINT lShin
    {
      OFFSET 2.1923 -43.463 -0.4932
      CHANNELS 6 Xposition Yposition Zposition Zrotation Xrotation Yrotation
      JOINT lFoot
      {
        OFFSET 0.733301 -45.8593 -2.6451
        CHANNELS 6 Xposition Yposition Zposition Zrotation Xrotation Yrotation
        End Site
        {
          OFFSET 2.6618 -4.2699 12.3931
        }
      }
    }
  }
  JOINT rThigh
  {
    OFFSET -8.367 -8.2066 0.5982
    CHANNELS 6 Xposition Yposition Zposition Zrotation Xrotation Yrotation
    JOINT rShin
    {
      OFFSET -2.1923 -43.463 -0.4931
      CHANNELS 6 Xposition Yposition Zposition Zrotation Xrotation Yrotation
      JOINT rFoot
      {
        OFFSET -0.733299 -45.8593 -2.6451
        CHANNELS 6 Xposition Yposition Zposition Zrotation Xrotation Yrotation
        End Site
        {
          OFFSET -2.6618 -4.2699 12.3931
        }
      }
    }
  }
}
MOTION
Frames:	4
Frame Time:	0.0333333
0.266606 101.813 19.6533 -7.28013 13.5983 -6.71087 -9.68234e-007 -1.18599 -1.5018 3.26668 4.49886 -2.40363 -7.99757e-008 9.964 0.2134 6.75075 8.84863 -5.08424 -6.57424e-008 13.134 -3.2573 6.75075 8.84861 -5.08424 -1.45744e-005 20.6862 -1.6905 -4.68307 -9.43251 -29.4077 -1.97989e-006 7.23799 -0.123695 1.70876 -3.71761 -23.6909 1.7069 20.075 5.00559 19.3919 -0.0687008 -0.61338 13.6458 -0.0470114 -4.849 -93.927 11.9271 13.6577 28.3255 -0.975897 2.2888 -3.95524 13.8521 -2.82727 22.1583 -0.529987 10.8316 -10.9265 11.8409 16.94 0.786004 0.111998 2.5817 4.77977 2.76401 13.6929 0.360097 -0.878 4.2331 -3.72233 -0.224347 -6.80088 1.8127 -1.21601 2.2227 -0.00877035 -0.00100813 -0.016009 0.9571 1.114 1.7695 3.80699e-031 4.57205e-015 -4.77083e-015 4.1246 0.486994 4.1451 -0.683793 5.5737 7.45883 3.4052 -1.454 2.7682 6.27225 -2.94428 -2.43119 1.4531 -1.79499 1.2713 0.94144 -0.421197 -0.382139 5.6954 0.209989 2.1184 3.30135 1.81716 -0.461188 3.9766 -1.53999 2.3863 2.29993 -1.15673 -0.936738 1.4042 -1.926 1.125 2.99021 -1.51421 -1.21159 2.0956 0.66 -0.3894 3.80699e-031 4.57205e-015 -4.77083e-015 5.03951 -0.0900104 2.4971 3.37137 -2.5163 -1.98334 3.7921 -1.55199 1.4806 2.46806 -1.34751 -1.14971 1.4655 -1.808 0.9609 3.15115 -1.73508 -1.46134 4.91411 -1.269 0.359103 2.30439 -3.14096 -2.82781 3.1477 -1.685 0.846199 4.35416 -2.58551 -1.96114 0.805497 -1.58501 0.795497 2.91777 -1.7107 -1.33137 -1.7069 20.075 5.0056 -13.5903 -0.00132466 -3.48247 -13.6458 -0.0470184 -4.849 87.2657 3.15454 -12.8859 -28.3255 -0.975894 2.2888 -1.32615 23.3432 -2.00974 -22.1583 -0.530015 10.8316 -6.87435 23.2128 12.0337 -0.786002 0.112006 2.5817 -2.28711 6.25055 -16.4324 -0.360104 -0.877994 4.2331 1.47674 -1.18405 4.36334 -1.81269 -1.216 2.2227 -0.885446 0.804864 -2.74126 -0.9571 1.114 1.7695 1.59028e-015 1.59028e-015 -3.18055e-015 -4.12461 0.487013 4.1451 8.05524 7.60751 -7.68296 -3.4052 -1.45401 2.7682 -1.72013 -0.578307 0.233163 -1.4531 -1.795 1.2713 4.19941 1.37678 -0.639315 -5.6954 0.210001 2.1184 2.12285 4.09893 -0.747 -3.9766 -1.54 2.3863 2.67319 0.996337 -0.390191 -1.4042 -1.926 1.125 1.90347 0.711573 -0.27319 -2.0956 0.66 -0.3894 1.59028e-015 1.59028e-015 -3.18055e-015 -5.03951 -0.0899861 2.4971 1.15418 -0.140136 0.100871 -3.7921 -1.55201 1.4806 2.35002 0.965289 -0.443325 -1.4655 -1.808 0.960902 1.57647 0.650116 -0.292918 -4.91411 -1.26899 0.3592 1.89973 -0.82066 1.09397 -3.14769 -1.68501 0.846197 0.140583 0.0626715 -0.023558 -0.805499 -1.585 0.795499 1.79678 0.792167 -0.31211 8.367 -8.20661 0.598203 3.66211 0.0729627 -11.0681 2.1923 -43.463 -0.493202 0.15661 2.06825 0.355266 0.733302 -45.8593 -2.6451 7.52211 -13.4274 -4.42019 -8.36701 -8.2066 0.598199 17.7131 -17.8114 7.74834 -2.1923 -43.463 -0.493102 0.490433 4.87833 0.207912 -0.733299 -45.8594 -2.6451 -5.09544 0.423051 -8.61116 
0.258397 101.813 19.6641 -7.29599 13.612 -6.69726 -5.08789e-007 -1.186 -1.5018 3.28001 4.51711 -2.41262 -3.74999e-007 9.964 0.213398 6.77922 8.88385 -5.1045 -1.40503e-007 13.134 -3.2573 6.77922 8.88386 -5.1045 2.15272e-006 20.686 -1.6905 -4.56878 -9.53456 -29.5406 -2.06057e-006 7.238 -0.123693 1.74055 -3.72069 -23.8182 1.7069 20.075 5.0056 19.3897 -0.0688867 -0.61547 13.6458 -0.047015 -4.849 -93.9217 11.9218 13.6762 28.3255 -0.975891 2.28879 -3.95196 13.8664 -2.83414 22.1583 -0.52999 10.8316 -10.9496 11.6946 16.9782 0.786003 0.111995 2.5817 4.77993 2.76401 13.6928 0.360097 -0.877999 4.2331 -3.72237 -0.224366 -6.80084 1.8127 -1.21601 2.2227 -0.00877573 -0.000998662 -0.0160082 0.9571 1.114 1.7695 -6.36111e-015 -3.57812e-015 -5.96354e-016 4.1246 0.486993 4.1451 -0.686752 5.57457 7.46025 3.4052 -1.45401 2.7682 6.26981 -2.94306 -2.4303 1.4531 -1.79499 1.2713 0.938807 -0.420008 -0.381092 5.6954 0.209988 2.1184 3.29538 1.82016 -0.458528 3.9766 -1.53999 2.3863 2.29385 -1.15362 -0.934309 1.4042 -1.926 1.125 2.9842 -1.5114 -1.20941 2.0956 0.66 -0.3894 -6.36111e-015 -3.57812e-015 -5.96354e-016 5.0395 -0.0900132 2.4971 3.36582 -2.51283 -1.98087 3.7921 -1.55199 1.4806 2.46238 -1.34435 -1.14713 1.4655 -1.808 0.960901 3.14599 -1.73307 -1.45938 4.9141 -1.269 0.359103 2.29804 -3.13682 -2.82507 3.1477 -1.68501 0.846197 4.34848 -2.58201 -1.95866 0.805499 -1.58501 0.7955 2.91227 -1.70741 -1.32893 -1.7069 20.075 5.0056 -13.5908 -0.00103005 -3.48886 -13.6458 -0.047011 -4.849 87.2668 3.15515 -12.8825 -28.3255 -0.975891 2.28879 -1.33545 23.3382 -2.00951 -22.1583 -0.530008 10.8316 -6.8773 23.2061 12.0257 -0.785999 0.112004 2.5817 -2.28728 6.2505 -16.4323 -0.360106 -0.877993 4.2331 1.4768 -1.18415 4.36329 -1.81269 -1.216 2.2227 -0.88545 0.804884 -2.74127 -0.9571 1.114 1.7695 1.59028e-015 0 -6.36111e-015 -4.1246 0.48701 4.1451 8.0551 7.6075 -7.68292 -3.4052 -1.45401 2.7682 -1.72034 -0.578383 0.23318 -1.4531 -1.795 1.2713 4.19959 1.37677 -0.63936 -5.6954 0.210002 2.1184 2.12923 4.10124 -0.748318 -3.9766 -1.54 2.3863 2.67979 0.998765 -0.391227 -1.4042 -1.926 1.125 1.91028 0.714103 -0.274196 -2.0956 0.66 -0.3894 1.59028e-015 0 -6.36111e-015 -5.03951 -0.0899878 2.4971 1.16025 -0.137356 0.0997657 -3.7921 -1.55201 1.4806 2.35591 0.967669 -0.444477 -1.4655 -1.808 0.960899 1.58252 0.652591 -0.294072 -4.91411 -1.26899 0.359203 1.90592 -0.817707 1.09306 -3.14769 -1.68501 0.846197 0.147152 0.0656022 -0.0246702 -0.805501 -1.585 0.795501 1.79824 0.793214 -0.312548 8.367 -8.2066 0.5982 3.682 0.0321223 -11.0431 2.1923 -43.463 -0.493204 0.155718 2.11176 0.352388 0.733305 -45.8594 -2.6451 7.506 -13.4486 -4.4444 -8.367 -8.2066 0.5982 17.7325 -17.7995 7.75308 -2.1923 -43.4631 -0.493098 0.486877 4.848 0.203422 -0.733304 -45.8594 -2.6451 -5.10032 0.422594 -8.60946 
0.249027 101.812 19.6704 -7.3039 13.6206 -6.68605 6.89364e-007 -1.186 -1.5018 3.28795 4.52291 -2.41545 4.12766e-007 9.96399 0.213401 6.79571 8.89497 -5.11129 -1.62715e-008 13.134 -3.2573 6.79571 8.89497 -5.11128 -1.545e-005 20.6861 -1.69045 -4.45699 -9.61196 -29.6841 -7.55955e-006 7.23799 -0.123691 1.7887 -3.71548 -23.9608 1.7069 20.075 5.0056 19.3865 -0.0690062 -0.618131 13.6458 -0.0470177 -4.849 -93.9162 11.9167 13.6914 28.3255 -0.975896 2.28881 -3.94934 13.8778 -2.83918 22.1583 -0.529997 10.8316 -10.9695 11.5751 17.0062 0.786002 0.111996 2.5817 4.78012 2.764 13.6926 0.360097 -0.878 4.2331 -3.7223 -0.224297 -6.8009 1.8127 -1.21601 2.2227 -0.00879315 -0.000985873 -0.0160128 0.9571 1.114 1.7695 -6.36111e-015 -2.18663e-015 -1.39149e-015 4.12461 0.486992 4.1451 -0.689675 5.57542 7.46169 3.4052 -1.454 2.7682 6.26735 -2.94185 -2.42943 1.4531 -1.79499 1.2713 0.936178 -0.418821 -0.380024 5.6954 0.209988 2.1184 3.2894 1.82317 -0.45583 3.9766 -1.53999 2.3863 2.28779 -1.15048 -0.931893 1.4042 -1.926 1.125 2.97816 -1.5086 -1.20726 2.0956 0.66 -0.3894 -6.36111e-015 -2.18663e-015 -1.39149e-015 5.03951 -0.0900121 2.4971 3.36026 -2.50936 -1.97837 3.7921 -1.55199 1.4806 2.45672 -1.34119 -1.14455 1.4655 -1.808 0.960898 3.14084 -1.73106 -1.45742 4.9141 -1.269 0.359102 2.29166 -3.13269 -2.82233 3.1477 -1.685 0.846197 4.3428 -2.5785 -1.95623 0.805498 -1.58501 0.7955 2.90682 -1.70412 -1.3265 -1.7069 20.075 5.0056 -13.5913 -0.000706747 -3.49525 -13.6458 -0.0470081 -4.84901 87.2671 3.15523 -12.8815 -28.3255 -0.975884 2.2888 -1.34474 23.3332 -2.00926 -22.1583 -0.530013 10.8316 -6.88223 23.2013 12.0194 -0.786002 0.112006 2.5817 -2.28747 6.25043 -16.4322 -0.360106 -0.877992 4.2331 1.47682 -1.18414 4.3633 -1.81269 -1.216 2.2227 -0.885465 0.804887 -2.74126 -0.9571 1.114 1.7695 -1.59028e-015 4.77083e-015 -6.36111e-015 -4.12461 0.487012 4.1451 8.05498 7.60747 -7.6829 -3.4052 -1.45401 2.7682 -1.72054 -0.578446 0.233223 -1.4531 -1.79499 1.2713 4.19955 1.37683 -0.639341 -5.6954 0.210003 2.1184 2.13565 4.10354 -0.749649 -3.9766 -1.54 2.3863 2.6864 1.0012 -0.392243 -1.4042 -1.926 1.125 1.91712 0.716647 -0.275228 -2.0956 0.66 -0.3894 -1.59028e-015 4.77083e-015 -6.36111e-015 -5.03951 -0.0899866 2.4971 1.1664 -0.13455 0.0986749 -3.7921 -1.55201 1.4806 2.3618 0.970084 -0.445661 -1.4655 -1.808 0.9609 1.58851 0.655045 -0.295215 -4.91411 -1.26899 0.359202 1.91213 -0.814744 1.09212 -3.14769 -1.68501 0.846197 0.15369 0.0685118 -0.0257713 -0.805499 -1.585 0.795499 1.79972 0.794268 -0.312989 8.36701 -8.2066 0.598201 3.69712 0.0195224 -11.0173 2.1923 -43.463 -0.493194 0.15505 2.12489 0.349344 0.733302 -45.8593 -2.6451 7.49364 -13.4621 -4.4712 -8.367 -8.20659 0.598199 17.7448 -17.8029 7.75775 -2.1923 -43.463 -0.4931 0.486502 4.84993 0.199468 -0.7333 -45.8593 -2.6451 -5.10747 0.411038 -8.61029 
0.238447 101.811 19.6729 -7.30564 13.6276 -6.67595 -3.91098e-007 -1.186 -1.5018 3.29218 4.52239 -2.41524 -7.64976e-008 9.964 0.2134 6.80418 8.89373 -5.11112 -4.0666e-007 13.134 -3.2573 6.80418 8.89372 -5.11112 -9.62246e-007 20.686 -1.6905 -4.3486 -9.67854 -29.8287 -1.38807e-007 7.238 -0.123694 1.85714 -3.71406 -24.1084 1.7069 20.075 5.0056 19.3825 -0.0691985 -0.621467 13.6458 -0.0470106 -4.849 -93.91 11.9119 13.7018 28.3255 -0.975897 2.28879 -3.9476 13.8856 -2.84229 22.1583 -0.52999 10.8316 -10.9836 11.4946 17.0234 0.786002 0.111997 2.5817 4.78029 2.76398 13.6925 0.360096 -0.877999 4.2331 -3.72231 -0.224291 -6.80091 1.8127 -1.21601 2.2227 -0.00878506 -0.000982451 -0.0160071 0.9571 1.114 1.7695 2.89663e-031 -3.97569e-015 4.17448e-015 4.1246 0.486992 4.1451 -0.692641 5.57628 7.46311 3.4052 -1.454 2.7682 6.2649 -2.94065 -2.42852 1.4531 -1.79499 1.2713 0.933541 -0.417631 -0.378978 5.6954 0.209987 2.1184 3.28341 1.82619 -0.453146 3.9766 -1.53999 2.3863 2.2817 -1.14736 -0.92946 1.4042 -1.926 1.125 2.97214 -1.50578 -1.20507 2.0956 0.66 -0.3894 2.89663e-031 -3.97569e-015 4.17448e-015 5.0395 -0.0900129 2.4971 3.3547 -2.5059 -1.97587 3.7921 -1.55199 1.4806 2.45105 -1.33801 -1.14195 1.4655 -1.808 0.960899 3.13569 -1.72906 -1.45545 4.91411 -1.269 0.359103 2.28531 -3.12851 -2.81958 3.1477 -1.685 0.846199 4.33712 -2.57502 -1.95378 0.805499 -1.58501 0.7955 2.90133 -1.7008 -1.32406 -1.7069 20.075 5.00559 -13.5918 -0.000370041 -3.50167 -13.6458 -0.0470148 -4.849 87.2673 3.15532 -12.8804 -28.3255 -0.9759 2.2888 -1.3515 23.3308 -2.0105 -22.1583 -0.53001 10.8316 -6.88989 23.1971 12.0169 -0.786002 0.112005 2.5817 -2.28765 6.25037 -16.4321 -0.360106 -0.877993 4.2331 1.47679 -1.18416 4.36329 -1.81269 -1.216 2.2227 -0.885466 0.804917 -2.74125 -0.9571 1.114 1.7695 -6.36111e-015 1.59028e-015 -3.18055e-015 -4.12461 0.48701 4.1451 8.05485 7.60745 -7.68286 -3.4052 -1.45401 2.7682 -1.72074 -0.578535 0.233244 -1.4531 -1.79499 1.2713 4.19971 1.37681 -0.639388 -5.6954 0.209999 2.1184 2.14202 4.10586 -0.750991 -3.9766 -1.54 2.3863 2.693 1.00365 -0.393272 -1.4042 -1.926 1.125 1.92393 0.719169 -0.27624 -2.0956 0.66 -0.3894 -6.36111e-015 1.59028e-015 -3.18055e-015 -5.03951 -0.0899893 2.4971 1.17249 -0.131751 0.0975668 -3.7921 -1.55201 1.4806 2.36773 0.972483 -0.446821 -1.4655 -1.808 0.960903 1.59455 0.657504 -0.296371 -4.91411 -1.26899 0.359203 1.91833 -0.811805 1.09117 -3.1477 -1.68501 0.846199 0.16024 0.0714345 -0.0268862 -0.805501 -1.585 0.7955 1.80122 0.795327 -0.313421 8.367 -8.20661 0.598204 3.70825 0.022902 -10.9908 2.1923 -43.463 -0.493198 0.154482 2.11757 0.34587 0.7333 -45.8593 -2.6451 7.48138 -13.4719 -4.49819 -8.367 -8.2066 0.598199 17.7521 -17.8107 7.76189 -2.19231 -43.463 -0.493102 0.486122 4.85471 0.1954 -0.733301 -45.8593 -2.6451 -5.11466 0.398473 -8.61116 
